<svg width="52" height="71" viewBox="0 0 52 71" fill="none" xmlns="http://www.w3.org/2000/svg">
<path d="M29.5206 19C18.9418 12.2047 25.9659 3.50196 30.8003 0C41.3791 9.83529 36.0612 16.7647 32.08 19C30.5443 17.3906 29.7339 18.3294 29.5206 19Z" fill="#C9D8CF"/>
<path d="M17.864 25.218C5.75515 28.6038 3.923 17.5711 4.52052 11.6316C18.9004 10.2667 20.542 18.8458 19.5653 23.306C17.3422 23.3833 17.5048 24.6129 17.864 25.218Z" fill="#C9D8CF"/>
<path d="M40.8593 61.155C14.449 70.3736 8.83118 46.1345 9.32359 32.8627C41.0604 27.8122 45.9105 46.6303 44.3684 56.6707C39.4431 57.1547 39.9768 59.8619 40.8593 61.155Z" fill="#C9D8CF"/>
</svg>
